HIERARCHY
ROOT hips
{
  OFFSET 0 10.680822821525009 1.3929502295107734
  CHANNELS 6 Xposition Yposition Zposition Yrotation Xrotation Zrotation
  JOINT spine
  {
    OFFSET -7.042017322922631e-31 0.6058489940359625 0
    CHANNELS 3 Yrotation Xrotation Zrotation
    JOINT chest
    {
      OFFSET 0 1.2699794144455032 0
      CHANNELS 3 Yrotation Xrotation Zrotation
      JOINT upperChest
      {
        OFFSET 0 1.217799211677689 0
        CHANNELS 3 Yrotation Xrotation Zrotation
        JOINT neck
        {
          OFFSET 0 1.5248826104153006 0
          CHANNELS 3 Yrotation Xrotation Zrotation
          JOINT head
          {
            OFFSET 0 0.8197772727844447 0
            CHANNELS 3 Yrotation Xrotation Zrotation
            JOINT leftEye
            {
              OFFSET 0.2793952361220866 0.6769952096623495 0.1830357412467788
              CHANNELS 3 Yrotation Xrotation Zrotation
              End Site
              {
                OFFSET 0.2793952361220866 0.6769952096623495 0.1830357412467788
              }
            }
            JOINT rightEye
            {
              OFFSET -0.27939522230689573 0.676995205357064 0.18303631459760622
              CHANNELS 3 Yrotation Xrotation Zrotation
              End Site
              {
                OFFSET -0.27939522230689573 0.676995205357064 0.18303631459760622
              }
            }
          }
        }
        JOINT leftShoulder
        {
          OFFSET 0.41486978509200423 1.1670505408695453 0
          CHANNELS 3 Yrotation Xrotation Zrotation
          JOINT leftUpperArm
          {
            OFFSET 0.9737926108153417 0 0
            CHANNELS 3 Yrotation Xrotation Zrotation
            JOINT leftLowerArm
            {
              OFFSET 2.5269332222665284 0 0
              CHANNELS 3 Yrotation Xrotation Zrotation
              JOINT leftHand
              {
                OFFSET 2.4263782738425914 0 0
                CHANNELS 3 Yrotation Xrotation Zrotation
                JOINT leftIndexProximal
                {
                  OFFSET 0.724320348022514 0.08170607082582437 0.20360061616140124
                  CHANNELS 3 Yrotation Xrotation Zrotation
                  JOINT leftIndexIntermediate
                  {
                    OFFSET 0.36548960630744587 -0.010566596513783999 -0.01414783573280308
                    CHANNELS 3 Yrotation Xrotation Zrotation
                    JOINT leftIndexDistal
                    {
                      OFFSET 0.22502819650693362 -0.007863819831430696 -0.007567681939621526
                      CHANNELS 3 Yrotation Xrotation Zrotation
                      End Site
                      {
                        OFFSET 0.22502819650693362 -0.007863819831430696 -0.007567681939621526
                      }
                    }
                  }
                }
                JOINT leftLittleProximal
                {
                  OFFSET 0.6720322998298205 0.08170601055037707 -0.3230036039466837
                  CHANNELS 3 Yrotation Xrotation Zrotation
                  JOINT leftLittleIntermediate
                  {
                    OFFSET 0.34583592281688713 5.476543019078406e-8 1.3869203337180114e-7
                    CHANNELS 3 Yrotation Xrotation Zrotation
                    JOINT leftLittleDistal
                    {
                      OFFSET 0.19925728062053938 0.003098047439490381 0.0038303983709246925
                      CHANNELS 3 Yrotation Xrotation Zrotation
                      End Site
                      {
                        OFFSET 0.19925728062053938 0.003098047439490381 0.0038303983709246925
                      }
                    }
                  }
                }
                JOINT leftMiddleProximal
                {
                  OFFSET 0.7300436596551069 0.0817073395107144 0.022661722987926763
                  CHANNELS 3 Yrotation Xrotation Zrotation
                  JOINT leftMiddleIntermediate
                  {
                    OFFSET 0.40758254347686607 -0.0000012383587111308714 2.408460318820138e-7
                    CHANNELS 3 Yrotation Xrotation Zrotation
                    JOINT leftMiddleDistal
                    {
                      OFFSET 0.2514490105498507 0.0000013869132886590307 9.738618134136345e-8
                      CHANNELS 3 Yrotation Xrotation Zrotation
                      End Site
                      {
                        OFFSET 0.2514490105498507 0.0000013869132886590307 9.738618134136345e-8
                      }
                    }
                  }
                }
                JOINT leftRingProximal
                {
                  OFFSET 0.7217261161191838 0.08170601902187746 -0.15043395722184966
                  CHANNELS 3 Yrotation Xrotation Zrotation
                  JOINT leftRingIntermediate
                  {
                    OFFSET 0.37808807487521556 0.0000013754022405443322 2.2046919317952884e-7
                    CHANNELS 3 Yrotation Xrotation Zrotation
                    JOINT leftRingDistal
                    {
                      OFFSET 0.21812105442344254 -0.002713483731960231 -0.004991354517454624
                      CHANNELS 3 Yrotation Xrotation Zrotation
                      End Site
                      {
                        OFFSET 0.21812105442344254 -0.002713483731960231 -0.004991354517454624
                      }
                    }
                  }
                }
                JOINT leftThumbProximal
                {
                  OFFSET 0.10793587079521427 -0.1652791240518252 -0.07775251827190094
                  CHANNELS 3 Yrotation Xrotation Zrotation
                  JOINT leftThumbIntermediate
                  {
                    OFFSET 0.40355819082296684 -0.017484006740276614 0.3177776014416309
                    CHANNELS 3 Yrotation Xrotation Zrotation
                    JOINT leftThumbDistal
                    {
                      OFFSET 0.2318764658022603 -0.018510186824293617 0.21396001800186287
                      CHANNELS 3 Yrotation Xrotation Zrotation
                      End Site
                      {
                        OFFSET 0.2318764658022603 -0.018510186824293617 0.21396001800186287
                      }
                    }
                  }
                }
              }
            }
          }
        }
        JOINT rightShoulder
        {
          OFFSET -0.4148697850920044 1.1670505408695453 0
          CHANNELS 3 Yrotation Xrotation Zrotation
          JOINT rightUpperArm
          {
            OFFSET -0.9737926108153414 0 0
            CHANNELS 3 Yrotation Xrotation Zrotation
            JOINT rightLowerArm
            {
              OFFSET -2.5269332222665293 0 0
              CHANNELS 3 Yrotation Xrotation Zrotation
              JOINT rightHand
              {
                OFFSET -2.42637827384259 0 0
                CHANNELS 3 Yrotation Xrotation Zrotation
                JOINT rightIndexProximal
                {
                  OFFSET -0.724320348022514 0.08170607082582437 0.20360061616140124
                  CHANNELS 3 Yrotation Xrotation Zrotation
                  JOINT rightIndexIntermediate
                  {
                    OFFSET -0.36548960630744587 -0.010566596513783999 -0.01414783573280308
                    CHANNELS 3 Yrotation Xrotation Zrotation
                    JOINT rightIndexDistal
                    {
                      OFFSET -0.22502819650693362 -0.007863819831430696 -0.007567681939621526
                      CHANNELS 3 Yrotation Xrotation Zrotation
                      End Site
                      {
                        OFFSET -0.22502819650693362 -0.007863819831430696 -0.007567681939621526
                      }
                    }
                  }
                }
                JOINT rightLittleProximal
                {
                  OFFSET -0.6720322998298205 0.08170601055037707 -0.3230036039466837
                  CHANNELS 3 Yrotation Xrotation Zrotation
                  JOINT rightLittleIntermediate
                  {
                    OFFSET -0.34583592281688713 5.476543019078406e-8 1.3869203337180114e-7
                    CHANNELS 3 Yrotation Xrotation Zrotation
                    JOINT rightLittleDistal
                    {
                      OFFSET -0.19925728062053938 0.003098047439490381 0.0038303983709246925
                      CHANNELS 3 Yrotation Xrotation Zrotation
                      End Site
                      {
                        OFFSET -0.19925728062053938 0.003098047439490381 0.0038303983709246925
                      }
                    }
                  }
                }
                JOINT rightMiddleProximal
                {
                  OFFSET -0.7300436596551069 0.0817073395107144 0.022661722987926763
                  CHANNELS 3 Yrotation Xrotation Zrotation
                  JOINT rightMiddleIntermediate
                  {
                    OFFSET -0.40758254347686607 -0.0000012383587111308714 2.408460318820138e-7
                    CHANNELS 3 Yrotation Xrotation Zrotation
                    JOINT rightMiddleDistal
                    {
                      OFFSET -0.2514490105498507 0.0000013869132886590307 9.738618134136345e-8
                      CHANNELS 3 Yrotation Xrotation Zrotation
                      End Site
                      {
                        OFFSET -0.2514490105498507 0.0000013869132886590307 9.738618134136345e-8
                      }
                    }
                  }
                }
                JOINT rightRingProximal
                {
                  OFFSET -0.7217261161191838 0.08170601902187746 -0.15043395722184966
                  CHANNELS 3 Yrotation Xrotation Zrotation
                  JOINT rightRingIntermediate
                  {
                    OFFSET -0.37808807487521556 0.0000013754022405443322 2.2046919317952884e-7
                    CHANNELS 3 Yrotation Xrotation Zrotation
                    JOINT rightRingDistal
                    {
                      OFFSET -0.21812105442344254 -0.002713483731960231 -0.004991354517454624
                      CHANNELS 3 Yrotation Xrotation Zrotation
                      End Site
                      {
                        OFFSET -0.21812105442344254 -0.002713483731960231 -0.004991354517454624
                      }
                    }
                  }
                }
                JOINT rightThumbProximal
                {
                  OFFSET -0.10793587079521427 -0.1652791240518252 -0.07775251827190094
                  CHANNELS 3 Yrotation Xrotation Zrotation
                  JOINT rightThumbIntermediate
                  {
                    OFFSET -0.40355819082296684 -0.017484006740276614 0.3177776014416309
                    CHANNELS 3 Yrotation Xrotation Zrotation
                    JOINT rightThumbDistal
                    {
                      OFFSET -0.2318764658022603 -0.018510186824293617 0.21396001800186287
                      CHANNELS 3 Yrotation Xrotation Zrotation
                      End Site
                      {
                        OFFSET -0.2318764658022603 -0.018510186824293617 0.21396001800186287
                      }
                    }
                  }
                }
              }
            }
          }
        }
      }
    }
  }
  JOINT leftUpperLeg
  {
    OFFSET 0.8486251390888677 -0.4421577294694363 0
    CHANNELS 3 Yrotation Xrotation Zrotation
    JOINT leftLowerLeg
    {
      OFFSET 0 -4.10147812638609 0
      CHANNELS 3 Yrotation Xrotation Zrotation
      JOINT leftFoot
      {
        OFFSET -0.0002543926476658853 -4.77292286812444 0.007402811231737388
        CHANNELS 3 Yrotation Xrotation Zrotation
        JOINT leftToes
        {
          OFFSET 0 -0.7027875951174846 1.2062924140498823
          CHANNELS 3 Yrotation Xrotation Zrotation
          End Site
          {
            OFFSET 0 -0.7027875951174846 1.2062924140498823
          }
        }
      }
    }
  }
  JOINT rightUpperLeg
  {
    OFFSET -0.8486251390888677 -0.4421577294694363 0
    CHANNELS 3 Yrotation Xrotation Zrotation
    JOINT rightLowerLeg
    {
      OFFSET 0 -4.10147812638609 0
      CHANNELS 3 Yrotation Xrotation Zrotation
      JOINT rightFoot
      {
        OFFSET 0.0002543926476658853 -4.77292286812444 0.007402811231737388
        CHANNELS 3 Yrotation Xrotation Zrotation
        JOINT rightToes
        {
          OFFSET 0 -0.7027875951174846 1.2062924140498823
          CHANNELS 3 Yrotation Xrotation Zrotation
          End Site
          {
            OFFSET 0 -0.7027875951174846 1.2062924140498823
          }
        }
      }
    }
  }
}
MOTION
Frames: 4
Frame Time: 0.03333333333333333
-0.5725473761558533 -0.2711300572427824 -0.05197155103087425 8.75512726117251 -3.297868901723142 -1.5491613745181059 1.8746754728993011 12.39055317620013 3.258052326897834 0.6085220265263507 7.509665136808263 3.326184520763633 0 0 0 -1.0663339287431892 5.739621052522411 1.7616080406328045 -7.793232109641783 20.43667177772406 6.644558713692477 0 0 0 0 0 0 -0.5681255477564566 0.2539155948091403 -1.4042863478394594 -43.281342917069615 -14.38978772456602 -60.5338392267286 -19.86589745796132 -2.932020205869464 0.7725688000471889 -9.190018505329961 -5.0366933635716515 -2.2728750962196576 5.875759700342684 3.0101327992416613 -28.540951818788262 1.9253244604725066 0.3082927746625683 -18.19493112138116 1.67749069793804 0.23259261914141596 -15.787227241052124 7.8282708884592 2.969715202850288 -21.521247094185043 0.35103029896888516 1.8912644383953188 -46.29219794317078 3.3840588705890493 1.0113538050308097 -33.271897785921766 5.347132316196164 2.4770998012738263 -26.522929230659624 2.779707084051334 0.6620525890857627 -26.789932305078832 2.2239283919272337 0.41500995163841237 -21.140276619098607 4.6481784564384885 1.8820365462581232 -24.074151045082104 3.7455569160338777 1.2675101900071644 -37.38274974536842 2.886726505709966 0.7173912716326045 -27.908221545293575 15.380005520578177 4.053782884316581 8.778616627947518 12.616006461560684 3.215548924029077 0.6045241211162319 12.047323492507422 0.7981546564397805 4.350060256229803 2.707929828779373 0.19068736085830898 7.130010506685671 14.586481175937935 -14.0388596280637 59.46970725005535 14.906231222047687 -2.22892738295414 -0.4851484493400958 11.804625100039411 15.310665722970452 2.365674451296313 -9.493799009848985 4.860339583843826 22.322033292186084 -1.6950885686395003 0.2349286966824495 15.779383307176602 -1.49304556164367 0.18148351233779855 13.858781201729613 -11.56770540999483 8.321685918712056 32.36011893739968 -4.012807849039308 1.4626467532546765 40.0400057682019 -3.9195512460707858 1.385834829197162 38.931825470841204 -10.214887848209816 5.8323016369558 25.3906947885458 -2.467788819034748 0.5092801247978929 23.317680322388924 -2.569258034723284 -0.0499981850190817 21.519684878789576 -11.015440764623465 7.163727641605241 29.245825305314757 -3.3649869557643233 0.9860343960710453 32.65597404834455 -3.6132310469029867 0.4454972008630161 31.168530550335756 -15.98328329240586 4.055530664704253 -11.209791032455758 -14.982796556714149 3.9928376002422796 -0.8871284092301661 -12.17013758930684 0.023734682928514855 -4.677007439729373 12.923701948288423 -11.989949014476457 6.83230427105711 6.8061373082556225 22.080301229317072 6.18032100540131 2.2389835911893683 -6.405073680323993 -9.368319687879977 0.000007372047286423203 -4.827586677286554 0.000003328336378198151 -4.067997414981572 -13.41802661390996 2.2564251971903024 -10.09555363876381 21.223987134726194 -7.986764105295008 -28.110625855594304 -2.134462481479677 6.368143153135399 0.00001050880513496715 -3.739484495687424 -1.3592446622513547e-7
-0.5343993306159973 -0.26674220171299723 -0.05546147748827934 9.031988554561242 -3.610023127376813 -1.8084675194619038 1.8284178579596597 12.056185483947694 2.865956596532885 0.6186912566444897 7.55908131076884 3.489871241685546 0 0 0 -1.045937316777857 5.734161573426669 1.7284711161522794 -8.113568506565827 20.244843442177505 7.346091714044999 0 0 0 0 0 0 -0.5436848829127526 0.262813981033022 -1.5514434930903214 -43.0217171010514 -14.654124409474617 -61.0663551452276 -18.00314180317249 -2.671013589957796 0.6574997330419063 -9.104378720622865 -4.860243187692623 -1.777260933522554 5.9406562151079285 3.0307433527749073 -28.16741806524311 1.9253398199445273 0.3083056614950998 -18.194925188420996 1.6707897613311868 0.2306634751430238 -15.722590587431801 7.972856975016919 3.069708650315795 -21.662242711202875 0.419341106442747 1.9638196951322446 -47.215971450290766 3.488285796139287 1.081247583071616 -34.436064428301385 5.433241973589129 2.5244176725448773 -26.309461481403734 2.8069857583731195 0.6759276234623494 -27.074026189697076 2.255671135443578 0.4273974747802845 -21.456788222606402 4.766509932026546 1.9563448021535328 -24.06074112888991 3.8001281430352623 1.309686816650108 -38.022207580994056 2.961510381799626 0.7576627894839528 -28.69676594908856 15.420247391453312 4.073373305337353 8.781684168287171 12.616000620244355 3.21555833034874 0.6045155169503866 11.951957431531886 0.7213136568199431 4.351851393715868 2.5273830894347906 0.19803814078801774 6.974214142329791 13.481804386105994 -14.38736557846163 60.01458204009539 13.994063113607423 -2.096943007729253 -0.43898046943494146 11.130722113363735 16.53985216568108 0.811157491249436 -9.26070168222858 4.733235781968352 22.521536318815578 -1.711001137650844 0.23945365574105323 15.931485577583382 -1.5039299611435988 0.18416502890897546 13.961720865331998 -11.635706991846394 8.383656161347037 32.38388559602883 -4.024251950408669 1.472285283643057 40.17728180204977 -3.9378493490174695 1.4006680888315837 39.147755907708905 -10.078535924850387 5.756325023798002 25.53871760997428 -2.4823559743296664 0.5155683658288421 23.46345007829421 -2.600058164784155 -0.0712722152766554 21.65651756393974 -10.994841743618037 7.160359693176932 29.32630531104946 -3.377828903537445 0.9943032546504402 32.79613493400039 -3.6516855177463166 0.43198498295045157 31.34822437609317 -15.951276466863776 4.021477015135997 -11.238859860047645 -15.01221276793767 4.004374552874303 -0.8978332475124404 -12.054959174776211 -0.06949885270404589 -4.679603111202448 12.946980426395495 -11.812405895450167 6.924587738822052 6.60736445029831 22.29844067580914 6.1447471385378325 2.1145277853687836 -6.6253858574454165 -9.134683281729977 0.000018150886032801033 -4.824154720572625 -2.3504637906665355e-7 -4.113161386084459 -12.808831640868908 2.260607069475891 -10.120199748588787 20.779559194964683 -7.969338147653381 -28.204464026968036 -1.829054733047073 6.4943039970818806 -0.000004707943625801189 -3.7815251818997635 6.08974034139208e-8
-0.4744396507740021 -0.26153990831700114 -0.06390490382909775 9.238655944969354 -3.958648774468903 -2.101373442190187 1.8440273396244766 11.535838615832029 2.2040824915421013 0.6548473351785753 7.529175154018257 3.7401615579607346 0 0 0 -0.9810259277628826 5.723480452032078 1.5695378447816426 -8.565000005615058 20.108330083027752 8.459029886121524 0 0 0 0 0 0 -0.3203183608093162 0.27698235184291436 -1.8479948331931777 -42.20815008238863 -15.101179984725693 -61.85532817019222 -14.728970321914694 -2.2033533156102623 0.47599382020428893 -8.567806995166846 -3.655449357679498 -1.22812481818632 5.994855578686132 3.030658924541615 -27.59710320730828 1.925326167080522 0.30831171803958685 -18.194948409690987 1.665988846627546 0.22933926154818338 -15.676365700591111 8.228133957321102 3.174037538947533 -21.313095696167377 0.44725679446688166 1.994158494656435 -47.59811794378788 3.5993929580189326 1.1592364684780883 -35.6952297870459 5.542914941673709 2.567905946407277 -25.809516428833835 2.818246635791863 0.6816858236833979 -27.191430437214418 2.291368344002357 0.4415587851135014 -21.81339338164259 4.94999357867306 2.0487120825525387 -23.6488456117595 3.8225434570359487 1.327274728104338 -38.286446528651176 3.0423749358742507 0.802724338837035 -29.55594068967239 15.4139311187869 4.026909737700469 8.84329546481988 12.61599561340158 3.215544434649268 0.6045279689419426 11.816323223002613 0.6131688850383833 4.354938580808774 2.4886018757461814 0.19764506906209192 6.461313229568289 11.806172974807964 -14.250330448171223 60.97555955129126 13.158757269378127 -1.9754329688095853 -0.39851709836098353 9.712694118062666 18.522347719156542 -0.7870794299939047 -8.153720383696912 4.108523507965725 23.21749981737174 -1.7208203729652218 0.2422320464954515 16.025012172805656 -1.5025161392052293 0.18381948892443356 13.948269481746502 -11.702985536475556 8.426936080335526 32.31501926580925 -4.030787723744894 1.4778134856188654 40.25559661583275 -3.9526252264926933 1.4127255124134401 39.32275393190272 -9.351999638347163 5.303963791953865 26.011748162578588 -2.4902759995094237 0.519038776983246 23.54287809985955 -2.658577557505008 -0.16104011776790847 21.700102416396703 -10.71998314342947 6.965035468526002 29.505792724987078 -3.38469709673761 0.9987289261011874 32.871212552235626 -3.7423060564382142 0.3460134301008227 31.460188668165287 -15.83558491784077 4.09403201009758 -11.063597927515724 -15.055877904899853 4.021057633569239 -0.9150789548590674 -11.63346379636123 -0.4046330013193815 -4.690221058175917 12.954532693448119 -11.606102956263365 6.933029185324758 6.578735521361772 22.598451410469977 6.17469208270693 1.9293498168712528 -6.947384826262754 -8.794618032250899 0.00003108286156297907 -4.843024485498187 -0.00000896218961469566 -4.304929059956459 -12.135047410453883 2.10042031590372 -10.08872999066018 20.239702080317997 -7.7709928367283725 -28.223429372488308 -1.4284550433064636 6.5809427155387485 0.00002178586830452177 -3.842016101805435 -0.0000011368423051922073
-0.43376079201698303 -0.2582831105264738 -0.06983982771635056 9.151259490682888 -4.179090524943001 -2.2289078542713856 1.925433257827953 11.255824672394535 1.725995090734851 0.6918027851145264 7.436728404570836 3.8343222624329454 0 0 0 -0.9114985052962844 5.723613879011871 1.3896778044618319 -8.799234810627597 20.077131463463658 9.183994725854575 0 0 0 0 0 0 -0.04837716324855786 0.2874007044968663 -2.096578541757625 -41.52836372224991 -15.027303298446032 -62.083283372570186 -12.969681701577713 -1.9478467435649347 0.389594872930047 -7.830710819768088 -2.424444452955899 -1.34529719700577 5.977325482066053 2.999079592061102 -27.3960428626374 1.925338966640533 0.30831118442333233 -18.19492787699535 1.6656870783066022 0.22924153036353348 -15.673462159635761 8.197846791057632 3.0893338704416746 -20.817662161158225 0.46283145764412464 2.011241414002892 -47.81237367569942 3.6680153455585467 1.2092288715214738 -36.48295002778995 5.519395836797817 2.5278051096143095 -25.517167024479782 2.8244756639830415 0.6848833266376432 -27.256408599976076 2.315447564749344 0.4512384975013003 -22.054420723653575 4.91657962900374 2.000711560576048 -23.241878151545247 3.834942755000622 1.3371097639586826 -38.43327408635068 3.093408190456525 0.8319763200000565 -30.10196683662903 15.347901598078062 3.966736698445804 8.881573628299426 12.616013049964176 3.2155790670083038 0.6045658593364979 11.778412165748705 0.5833900377180288 4.355909107001049 2.5736832794720796 0.18991347748050222 5.950187820327175 10.851366880269552 -13.846994159235736 61.7651231398027 12.672492930640942 -1.9043881616669784 -0.3757802806021043 9.143106346083865 19.606503846821756 -0.9229781703897845 -7.363304266181095 3.68123022161087 24.0535186575583 -1.7294873506543038 0.24474725968932112 16.10810985907687 -1.5083024030285408 0.18525307569354912 14.003289262520742 -11.661567090958696 8.393962192048251 32.35565378412872 -4.0383758360459225 1.4842313116226475 40.34687985840784 -3.963743406868141 1.42185279711784 39.45464564661978 -8.798905462424091 4.983540519355779 26.611733230902537 -2.4982128801242154 0.5224844295766277 23.622269665348572 -2.6970328683462497 -0.20838841043397352 21.779094898228298 -10.454590897665218 6.796156777453775 29.800546320530263 -3.392295859335823 1.003636312435227 32.9542915752137 -3.797398774237341 0.3005259395390378 31.56537571137238 -15.758459374681085 4.222644554544186 -10.832723810041943 -15.066721704927643 4.025384549069238 -0.9198351149780357 -11.424949608256524 -0.5701981928793809 -4.695370405466223 13.006042576547348 -11.409365921617308 6.906571651016891 6.6799364996447945 22.760590329338388 6.172849370544118 1.87543663126274 -7.161440893123012 -8.564925952807403 0.00000798638610026134 -4.849842766570859 -0.000005239273362764799 -4.504274692283091 -11.748408011343203 1.8832856114569148 -10.024526111945535 19.941915769690432 -7.551631576193866 -27.85942881403926 -1.2318105449889243 6.5863709796655625 -0.0000248237769347842 -3.8820212933795255 0.0000037413650707967726
